<svg width="24" height="24" viewBox="0 0 24 24" fill="none" xmlns="http://www.w3.org/2000/svg">
<path d="M21 18C21 17.4 20.6 17 20 17H19.6L12.9 3.59995C12.6 2.89995 11.5 2.89995 11.1 3.59995L4.4 17H4C3.4 17 3 17.4 3 18C3 18.4 3.2 18.6 3.5 18.8L3.1 19.5C2.9 20 3.1 20.5999 3.5 20.7999C4 20.9999 4.6 20.8 4.8 20.4L5.6 19H18.4L19.1 20.4C19.3 20.8 19.6 21 20 21C20.2 21 20.3 21 20.4 20.9C20.9 20.7 21.1 20.1 20.8 19.6L20.4 18.9C20.8 18.6 21 18.4 21 18V18ZM12 6.19995L12.9 7.99995H11.1L12 6.19995ZM9 17H6.6L7.1 16H9V17ZM9.2 14H8.1L8.6 13H9.8C9.5 13.3 9.3 13.6 9.2 14ZM13 17H11V15C11 14.4 11.4 14 12 14C12.3 14 12.5 14.1 12.7 14.3C12.9 14.5 13 14.7 13 15V17ZM9.6 11L10.1 9.99995H13.9L14.4 11H9.6ZM14.2 13H15.4L15.9 14H14.8C14.7 13.6 14.5 13.3 14.2 13ZM15 17V16H16.9L17.4 17H15Z" fill="#E23E48"/>
</svg>
