<svg width="24" height="24" viewBox="0 0 24 24" fill="none" xmlns="http://www.w3.org/2000/svg">
<g clip-path="url(#clip0_7_37)">
<path d="M16.8792 21.971H15.6923C15.6203 21.9766 15.5531 22.0091 15.5041 22.0621C15.4551 22.1151 15.4279 22.1846 15.4279 22.2567C15.4279 22.3289 15.4551 22.3984 15.5041 22.4514C15.5531 22.5044 15.6203 22.5369 15.6923 22.5424H16.8792C16.9511 22.5369 17.0183 22.5044 17.0673 22.4514C17.1163 22.3984 17.1436 22.3289 17.1436 22.2567C17.1436 22.1846 17.1163 22.1151 17.0673 22.0621C17.0183 22.0091 16.9511 21.9766 16.8792 21.971V21.971ZM8.30773 21.971H7.12087C7.04892 21.9766 6.98172 22.0091 6.9327 22.0621C6.88368 22.1151 6.85645 22.1846 6.85645 22.2567C6.85645 22.3289 6.88368 22.3984 6.9327 22.4514C6.98172 22.5044 7.04892 22.5369 7.12087 22.5424H8.30773C8.37968 22.5369 8.44688 22.5044 8.4959 22.4514C8.54492 22.3984 8.57215 22.3289 8.57215 22.2567C8.57215 22.1846 8.54492 22.1151 8.4959 22.0621C8.44688 22.0091 8.37968 21.9766 8.30773 21.971V21.971ZM14.8572 21.971H9.14287C9.06709 21.971 8.99442 22.0011 8.94084 22.0547C8.88726 22.1083 8.85715 22.181 8.85715 22.2567C8.85715 22.3325 8.88726 22.4052 8.94084 22.4588C8.99442 22.5123 9.06709 22.5424 9.14287 22.5424H11.42V22.8282H10.2857C10.2099 22.8282 10.1373 22.8583 10.0837 22.9118C10.0301 22.9654 10 23.0381 10 23.1139C10 23.1897 10.0301 23.2623 10.0837 23.3159C10.1373 23.3695 10.2099 23.3996 10.2857 23.3996H13.8572C13.9329 23.3996 14.0056 23.3695 14.0592 23.3159C14.1128 23.2623 14.1429 23.1897 14.1429 23.1139C14.1429 23.0381 14.1128 22.9654 14.0592 22.9118C14.0056 22.8583 13.9329 22.8282 13.8572 22.8282H12.58V22.5424H14.8572C14.9329 22.5424 15.0056 22.5123 15.0592 22.4588C15.1128 22.4052 15.1429 22.3325 15.1429 22.2567C15.1429 22.181 15.1128 22.1083 15.0592 22.0547C15.0056 22.0011 14.9329 21.971 14.8572 21.971ZM11.7143 13.6822H12.2857C12.4372 13.682 12.5825 13.6217 12.6896 13.5145C12.7968 13.4074 12.857 13.2621 12.8572 13.1106V12.5389C12.857 12.3873 12.7968 12.242 12.6897 12.1348C12.5825 12.0277 12.4373 11.9674 12.2857 11.9672H11.7143C11.5628 11.9674 11.4175 12.0277 11.3103 12.1348C11.2032 12.242 11.143 12.3873 11.1429 12.5389V13.1106C11.143 13.2621 11.2033 13.4074 11.3104 13.5145C11.4175 13.6217 11.5628 13.682 11.7143 13.6822ZM11.7143 12.5389H12.2857L12.2862 13.1106H11.7143V12.5389Z" fill="#E23E48"/>
<path d="M3.48457 11.6582C3.43949 11.7191 3.42045 11.7954 3.43165 11.8704C3.44285 11.9453 3.48336 12.0128 3.54429 12.0579C3.60521 12.103 3.68155 12.122 3.75651 12.1108C3.83147 12.0996 3.89892 12.0591 3.944 11.9982L4.57143 11.15V13.3963C4.57143 13.4721 4.60153 13.5447 4.65511 13.5983C4.7087 13.6519 4.78137 13.682 4.85714 13.682C4.93292 13.682 5.00559 13.6519 5.05918 13.5983C5.11276 13.5447 5.14286 13.4721 5.14286 13.3963V11.15L5.77029 11.9982C5.81537 12.0591 5.88282 12.0996 5.95778 12.1108C6.03274 12.122 6.10908 12.103 6.17 12.0579C6.23093 12.0128 6.27144 11.9453 6.28264 11.8704C6.29384 11.7954 6.2748 11.7191 6.22972 11.6582L5.14286 10.1889V8.66244L5.77029 9.51073C5.81537 9.57165 5.88282 9.61217 5.95778 9.62337C6.03274 9.63457 6.10908 9.61553 6.17 9.57044C6.23093 9.52535 6.27144 9.45791 6.28264 9.38295C6.29384 9.30799 6.2748 9.23165 6.22972 9.17073L5.14286 7.70144V6.26001L5.77029 7.10816C5.81537 7.16908 5.88282 7.2096 5.95778 7.2208C6.03274 7.232 6.10908 7.21296 6.17 7.16787C6.23093 7.12278 6.27144 7.05534 6.28264 6.98038C6.29384 6.90542 6.2748 6.82908 6.22972 6.76816L5.08686 5.22316C5.0591 5.189 5.02408 5.16147 4.98435 5.14256C4.94461 5.12364 4.90115 5.11383 4.85714 5.11383C4.81314 5.11383 4.76968 5.12364 4.72994 5.14256C4.69021 5.16147 4.65518 5.189 4.62743 5.22316L3.48457 6.7683C3.46225 6.79847 3.44608 6.83273 3.437 6.86915C3.42792 6.90556 3.4261 6.94341 3.43165 6.98052C3.43719 7.01764 3.44999 7.0533 3.46932 7.08547C3.48865 7.11764 3.51412 7.14569 3.54429 7.16801C3.57445 7.19034 3.60872 7.2065 3.64514 7.21558C3.68155 7.22466 3.7194 7.22648 3.75651 7.22094C3.79363 7.21539 3.82929 7.20259 3.86146 7.18327C3.89363 7.16394 3.92168 7.13847 3.944 7.1083L4.57143 6.26001V7.70144L3.48457 9.17058C3.43947 9.23151 3.42041 9.30786 3.4316 9.38283C3.44278 9.4578 3.48329 9.52526 3.54422 9.57037C3.60514 9.61548 3.68149 9.63453 3.75646 9.62335C3.83144 9.61216 3.8989 9.57165 3.944 9.51073L4.57143 8.66244V10.1889L3.48457 11.6582ZM17.7703 11.6582C17.748 11.6883 17.7318 11.7226 17.7227 11.759C17.7136 11.7954 17.7118 11.8332 17.7173 11.8703C17.7229 11.9074 17.7357 11.9431 17.755 11.9753C17.7743 12.0074 17.7998 12.0355 17.8299 12.0578C17.8601 12.0801 17.8943 12.0963 17.9308 12.1054C17.9672 12.1145 18.005 12.1163 18.0421 12.1107C18.0792 12.1052 18.1149 12.0924 18.147 12.0731C18.1792 12.0538 18.2072 12.0283 18.2296 11.9982L18.8571 11.15V13.3964C18.8571 13.4722 18.8872 13.5449 18.9408 13.5985C18.9944 13.6521 19.0671 13.6822 19.1429 13.6822C19.2186 13.6822 19.2913 13.6521 19.3449 13.5985C19.3985 13.5449 19.4286 13.4722 19.4286 13.3964V11.15L20.0561 11.9983C20.1027 12.057 20.1699 12.0959 20.2441 12.107C20.3182 12.118 20.3938 12.1006 20.4556 12.058C20.5165 12.0129 20.557 11.9454 20.5682 11.8704C20.5794 11.7955 20.5604 11.7191 20.5153 11.6582L19.4286 10.1889V8.66244L20.0561 9.51073C20.1021 9.57044 20.1693 9.61002 20.2438 9.62116C20.3183 9.63229 20.3942 9.61411 20.4556 9.57044C20.5165 9.52532 20.557 9.45785 20.5682 9.38287C20.5794 9.30789 20.5604 9.23154 20.5153 9.17058L19.4286 7.70144V6.26001L20.056 7.10816C20.1028 7.1667 20.1699 7.2054 20.244 7.2165C20.3181 7.2276 20.3937 7.21028 20.4556 7.16801C20.5165 7.12291 20.557 7.05547 20.5682 6.98052C20.5794 6.90556 20.5604 6.82923 20.5153 6.7683L19.3724 5.22316C19.3447 5.18903 19.3097 5.16152 19.27 5.14262C19.2303 5.12373 19.1868 5.11392 19.1429 5.11392C19.0989 5.11392 19.0555 5.12373 19.0157 5.14262C18.976 5.16152 18.941 5.18903 18.9133 5.22316L17.7704 6.7683C17.7473 6.79838 17.7303 6.83279 17.7206 6.8695C17.7109 6.90621 17.7085 6.94449 17.7138 6.98211C17.719 7.01972 17.7317 7.05592 17.7511 7.08857C17.7705 7.12122 17.7962 7.14968 17.8267 7.17229C17.8573 7.19489 17.892 7.21118 17.9289 7.2202C17.9658 7.22923 18.0041 7.23081 18.0416 7.22485C18.0791 7.21889 18.115 7.20552 18.1473 7.1855C18.1796 7.16549 18.2076 7.13924 18.2296 7.1083L18.8571 6.25973V7.70144L17.7704 9.17058C17.7477 9.20071 17.7312 9.23502 17.7219 9.27156C17.7125 9.30809 17.7105 9.34612 17.7159 9.38344C17.7213 9.42077 17.734 9.45665 17.7533 9.48903C17.7727 9.52141 17.7982 9.54964 17.8286 9.57209C17.8589 9.59454 17.8933 9.61077 17.9299 9.61984C17.9665 9.62891 18.0046 9.63064 18.0418 9.62494C18.0791 9.61923 18.1149 9.6062 18.1471 9.5866C18.1793 9.567 18.2074 9.54121 18.2296 9.51073L18.8571 8.66244V10.1889L17.7703 11.6582Z" fill="#E23E48"/>
<path d="M0.285714 21.3996C0.44351 21.3996 0.571429 21.2716 0.571429 21.1138C0.571429 20.956 0.44351 20.8281 0.285714 20.8281C0.127919 20.8281 0 20.956 0 21.1138C0 21.2716 0.127919 21.3996 0.285714 21.3996Z" fill="#E23E48"/>
<path d="M1.57143 20.8281H1.14286C1.06709 20.8281 0.994413 20.8582 0.940831 20.9118C0.887249 20.9654 0.857147 21.0381 0.857147 21.1138C0.857147 21.1896 0.887249 21.2623 0.940831 21.3159C0.994413 21.3695 1.06709 21.3996 1.14286 21.3996H1.57143C1.64721 21.3996 1.71988 21.3695 1.77346 21.3159C1.82705 21.2623 1.85715 21.1896 1.85715 21.1138C1.85715 21.0381 1.82705 20.9654 1.77346 20.9118C1.71988 20.8582 1.64721 20.8281 1.57143 20.8281ZM22.8571 20.8281H22.4286C22.3528 20.8281 22.2801 20.8582 22.2265 20.9118C22.173 20.9654 22.1429 21.0381 22.1429 21.1138C22.1429 21.1896 22.173 21.2623 22.2265 21.3159C22.2801 21.3695 22.3528 21.3996 22.4286 21.3996H22.8571C22.9329 21.3996 23.0056 21.3695 23.0592 21.3159C23.1128 21.2623 23.1429 21.1896 23.1429 21.1138C23.1429 21.0381 23.1128 20.9654 23.0592 20.9118C23.0056 20.8582 22.9329 20.8281 22.8571 20.8281Z" fill="#E23E48"/>
<path d="M23.7143 21.3996C23.8721 21.3996 24 21.2716 24 21.1138C24 20.956 23.8721 20.8281 23.7143 20.8281C23.5565 20.8281 23.4286 20.956 23.4286 21.1138C23.4286 21.2716 23.5565 21.3996 23.7143 21.3996Z" fill="#E23E48"/>
<path d="M21.5314 20.8281H21.1429V18.4567C21.1429 18.3809 21.1128 18.3083 21.0592 18.2547C21.0056 18.2011 20.9329 18.171 20.8571 18.171C20.7814 18.171 20.7087 18.2011 20.6551 18.2547C20.6015 18.3083 20.5714 18.3809 20.5714 18.4567V20.2281L12.3586 8.83242L13.3657 7.57242C13.4131 7.51332 13.435 7.43782 13.4267 7.36254C13.4184 7.28725 13.3805 7.21835 13.3214 7.17099C13.2623 7.12363 13.1868 7.10169 13.1115 7.11C13.0363 7.1183 12.9674 7.15618 12.92 7.21528L12 8.36528L11.08 7.21528C11.0326 7.15618 10.9637 7.1183 10.8885 7.11C10.8132 7.10169 10.7377 7.12363 10.6786 7.17099C10.6195 7.21835 10.5816 7.28725 10.5733 7.36254C10.565 7.43782 10.5869 7.51332 10.6343 7.57242L11.6414 8.83242L3.42857 20.2281V18.4567C3.42857 18.3809 3.39847 18.3083 3.34489 18.2547C3.29131 18.2011 3.21863 18.171 3.14286 18.171C3.06708 18.171 2.99441 18.2011 2.94083 18.2547C2.88724 18.3083 2.85714 18.3809 2.85714 18.4567V20.8281H2.46857C2.42792 20.8228 2.38661 20.8262 2.34739 20.8382C2.30818 20.8501 2.27195 20.8703 2.24115 20.8973C2.21034 20.9243 2.18566 20.9577 2.16875 20.995C2.15184 21.0323 2.1431 21.0729 2.1431 21.1139C2.1431 21.1548 2.15184 21.1954 2.16875 21.2327C2.18566 21.27 2.21034 21.3034 2.24115 21.3304C2.27195 21.3574 2.30818 21.3776 2.34739 21.3895C2.38661 21.4015 2.42792 21.4049 2.46857 21.3996H21.5314C21.5721 21.4049 21.6134 21.4015 21.6526 21.3895C21.6918 21.3776 21.728 21.3574 21.7589 21.3304C21.7897 21.3034 21.8143 21.27 21.8312 21.2327C21.8482 21.1954 21.8569 21.1548 21.8569 21.1139C21.8569 21.0729 21.8482 21.0323 21.8312 20.995C21.8143 20.9577 21.7897 20.9243 21.7589 20.8973C21.728 20.8703 21.6918 20.8501 21.6526 20.8382C21.6134 20.8262 21.5721 20.8228 21.5314 20.8281V20.8281ZM3.70143 20.8281L9.73143 12.4596C9.55572 12.7867 5.31571 20.6781 5.24 20.8281H3.70143ZM13.1429 20.8281H10.8571V16.2553C10.8571 15.9522 10.9776 15.6615 11.1919 15.4472C11.4062 15.2328 11.6969 15.1124 12 15.1124C12.3031 15.1124 12.5938 15.2328 12.8081 15.4472C13.0224 15.6615 13.1429 15.9522 13.1429 16.2553V20.8281ZM13.7143 20.8281V16.2553C13.7143 15.8006 13.5337 15.3646 13.2122 15.0431C12.8907 14.7216 12.4547 14.541 12 14.541C11.5453 14.541 11.1093 14.7216 10.7878 15.0431C10.4663 15.3646 10.2857 15.8006 10.2857 16.2553V20.8281H5.90571L6.36429 19.971L6.67 19.3981L12 9.42957L17.33 19.3981L17.6357 19.971L18.0943 20.8281H13.7143ZM18.76 20.8281C18.68 20.6653 14.6186 13.1139 14.3314 12.5767C14.3134 12.5381 14.2934 12.5004 14.2714 12.4639C14.4157 12.6639 19.0214 19.0567 20.2986 20.8281H18.76Z" fill="#E23E48"/>
<path d="M10.2857 19.3981V19.971H6.36429L6.67 19.3981H10.2857ZM17.6357 19.971H13.7143V19.3981H17.33L17.6357 19.971Z" fill="#E23E48"/>
<path d="M7.71015 4.9234C7.79491 4.9234 7.87777 4.89827 7.94825 4.85117C8.01873 4.80408 8.07366 4.73715 8.1061 4.65884C8.13853 4.58053 8.14702 4.49436 8.13049 4.41122C8.11395 4.32809 8.07313 4.25172 8.01319 4.19178C7.95326 4.13185 7.87689 4.09103 7.79376 4.07449C7.71062 4.05796 7.62445 4.06644 7.54614 4.09888C7.46783 4.13132 7.4009 4.18625 7.3538 4.25673C7.30671 4.32721 7.28158 4.41007 7.28158 4.49483C7.28169 4.60846 7.32688 4.7174 7.40723 4.79775C7.48758 4.8781 7.59652 4.92329 7.71015 4.9234V4.9234ZM7.71015 4.28054C7.75253 4.28054 7.79396 4.29311 7.8292 4.31666C7.86444 4.3402 7.8919 4.37367 7.90812 4.41283C7.92434 4.45198 7.92858 4.49507 7.92032 4.53664C7.91205 4.5782 7.89164 4.61638 7.86167 4.64635C7.8317 4.67632 7.79352 4.69673 7.75195 4.705C7.71039 4.71327 7.6673 4.70902 7.62815 4.6928C7.58899 4.67659 7.55552 4.64912 7.53198 4.61388C7.50843 4.57864 7.49586 4.53721 7.49586 4.49483C7.4959 4.43801 7.51849 4.38353 7.55867 4.34335C7.59885 4.30317 7.65333 4.28058 7.71015 4.28054V4.28054ZM23.1904 9.39954C23.1339 9.39954 23.0787 9.4163 23.0317 9.4477C22.9847 9.47909 22.9481 9.52371 22.9265 9.57592C22.9048 9.62813 22.8992 9.68558 22.9102 9.741C22.9212 9.79642 22.9484 9.84733 22.9884 9.88729C23.0284 9.92725 23.0793 9.95446 23.1347 9.96548C23.1901 9.97651 23.2476 9.97085 23.2998 9.94922C23.352 9.9276 23.3966 9.89098 23.428 9.84399C23.4594 9.79701 23.4761 9.74177 23.4761 9.68526C23.4761 9.60951 23.4459 9.53688 23.3924 9.48331C23.3388 9.42975 23.2662 9.39962 23.1904 9.39954V9.39954ZM23.1904 9.82812C23.1622 9.82812 23.1346 9.81974 23.1111 9.80404C23.0876 9.78834 23.0693 9.76603 23.0585 9.73993C23.0476 9.71382 23.0448 9.6851 23.0503 9.65739C23.0558 9.62968 23.0694 9.60422 23.0894 9.58424C23.1094 9.56426 23.1349 9.55066 23.1626 9.54515C23.1903 9.53963 23.219 9.54246 23.2451 9.55328C23.2712 9.56409 23.2935 9.5824 23.3092 9.60589C23.3249 9.62938 23.3333 9.657 23.3333 9.68526C23.3333 9.72313 23.3182 9.75945 23.2914 9.78623C23.2646 9.81301 23.2283 9.82808 23.1904 9.82812V9.82812ZM14.0436 5.39954C13.9871 5.39954 13.9318 5.4163 13.8848 5.4477C13.8379 5.47909 13.8012 5.52371 13.7796 5.57592C13.758 5.62813 13.7523 5.68558 13.7634 5.741C13.7744 5.79642 13.8016 5.84733 13.8415 5.88729C13.8815 5.92725 13.9324 5.95446 13.9878 5.96548C14.0433 5.97651 14.1007 5.97085 14.1529 5.94922C14.2051 5.9276 14.2497 5.89098 14.2811 5.84399C14.3125 5.79701 14.3293 5.74177 14.3293 5.68526C14.3292 5.60951 14.2991 5.53688 14.2455 5.48331C14.192 5.42975 14.1193 5.39962 14.0436 5.39954ZM14.0436 5.82812C14.0153 5.82812 13.9877 5.81974 13.9642 5.80404C13.9407 5.78834 13.9224 5.76603 13.9116 5.73993C13.9008 5.71382 13.898 5.6851 13.9035 5.65739C13.909 5.62968 13.9226 5.60422 13.9426 5.58424C13.9625 5.56426 13.988 5.55066 14.0157 5.54515C14.0434 5.53963 14.0721 5.54246 14.0982 5.55328C14.1244 5.56409 14.1467 5.5824 14.1624 5.60589C14.1781 5.62938 14.1864 5.657 14.1864 5.68526C14.1864 5.72314 14.1713 5.75945 14.1446 5.78623C14.1178 5.81301 14.0815 5.82808 14.0436 5.82812V5.82812ZM22.615 1.11383C22.5585 1.11383 22.5033 1.13059 22.4563 1.16198C22.4093 1.19338 22.3727 1.238 22.351 1.29021C22.3294 1.34241 22.3238 1.39986 22.3348 1.45528C22.3458 1.51071 22.373 1.56162 22.413 1.60158C22.4529 1.64153 22.5038 1.66874 22.5593 1.67977C22.6147 1.69079 22.6721 1.68514 22.7243 1.66351C22.7766 1.64189 22.8212 1.60526 22.8526 1.55828C22.884 1.51129 22.9007 1.45605 22.9007 1.39954C22.9006 1.32379 22.8705 1.25116 22.817 1.1976C22.7634 1.14403 22.6908 1.11391 22.615 1.11383V1.11383ZM22.615 1.5424C22.5868 1.5424 22.5591 1.53402 22.5356 1.51833C22.5121 1.50263 22.4938 1.48032 22.483 1.45421C22.4722 1.42811 22.4694 1.39939 22.4749 1.37167C22.4804 1.34396 22.494 1.31851 22.514 1.29853C22.534 1.27855 22.5594 1.26494 22.5871 1.25943C22.6148 1.25392 22.6436 1.25675 22.6697 1.26756C22.6958 1.27837 22.7181 1.29668 22.7338 1.32018C22.7495 1.34367 22.7579 1.37129 22.7579 1.39954C22.7578 1.43742 22.7428 1.47374 22.716 1.50052C22.6892 1.5273 22.6529 1.54236 22.615 1.5424V1.5424ZM1.61901 8.97097C1.61901 8.91446 1.60225 8.85922 1.57085 8.81224C1.53946 8.76525 1.49484 8.72863 1.44263 8.70701C1.39042 8.68538 1.33297 8.67972 1.27755 8.69075C1.22213 8.70177 1.17122 8.72898 1.13126 8.76894C1.0913 8.8089 1.06409 8.85981 1.05307 8.91523C1.04204 8.97066 1.0477 9.0281 1.06933 9.08031C1.09095 9.13252 1.12757 9.17714 1.17456 9.20854C1.22154 9.23993 1.27678 9.25669 1.33329 9.25669C1.40904 9.25661 1.48167 9.22649 1.53524 9.17292C1.5888 9.11935 1.61893 9.04673 1.61901 8.97097V8.97097ZM1.19043 8.97097C1.19043 8.94272 1.19881 8.9151 1.21451 8.89161C1.23021 8.86811 1.25252 8.8498 1.27862 8.83899C1.30473 8.82818 1.33345 8.82535 1.36116 8.83086C1.38887 8.83637 1.41433 8.84998 1.43431 8.86996C1.45429 8.88994 1.46789 8.91539 1.4734 8.9431C1.47892 8.97081 1.47609 8.99954 1.46527 9.02564C1.45446 9.05175 1.43615 9.07406 1.41266 9.08975C1.38917 9.10545 1.36155 9.11383 1.33329 9.11383C1.29541 9.11379 1.2591 9.09873 1.23232 9.07195C1.20554 9.04516 1.19047 9.00885 1.19043 8.97097V8.97097Z" fill="#E23E48"/>
<path d="M1.69657 2.23497L1.909 1.95569L1.77486 1.87969L1.63857 2.19255H1.634L1.49557 1.88183L1.359 1.96012L1.56928 2.23283V2.23726L1.24057 2.19483V2.34669L1.57143 2.3044V2.30883L1.359 2.5814L1.48643 2.66197L1.63186 2.34669H1.63628L1.77028 2.65969L1.91128 2.57926L1.69657 2.31097V2.30655L2.034 2.34669V2.19483L1.69657 2.2394V2.23497V2.23497ZM9.583 0.847546L9.46071 1.00455L9.534 1.05083L9.61786 0.869403H9.62029L9.69757 1.04955L9.77871 1.00326L9.65514 0.848831V0.84626L9.84943 0.869403V0.781831L9.65514 0.807546V0.804974L9.77743 0.644117L9.70014 0.600403L9.62171 0.780546H9.619L9.53929 0.601689L9.46071 0.646689L9.58171 0.803689V0.80626L9.39243 0.781831V0.869403L9.583 0.844974V0.847546V0.847546ZM22.1864 6.50155V6.3524L21.8554 6.39626V6.39183L22.0637 6.11783L21.9321 6.0434L21.7984 6.35026H21.794L21.6581 6.0454L21.5243 6.12226L21.7304 6.38969V6.39412L21.408 6.3524V6.50155L21.7326 6.45983V6.46426L21.5243 6.73169L21.6493 6.81069L21.7919 6.50155H21.7961L21.9277 6.8084L22.0659 6.72955L21.8554 6.4664V6.46197L22.1864 6.50155V6.50155ZM16.6783 2.48326L16.858 2.24683L16.7444 2.18255L16.6291 2.44726H16.6253L16.5081 2.1844L16.3926 2.25069L16.5704 2.4814V2.48526L16.2924 2.44926V2.57783L16.5723 2.54197V2.54569L16.3926 2.7764L16.5004 2.84455L16.6234 2.57783H16.6271L16.7407 2.84255L16.8599 2.77455L16.6783 2.54755V2.54383L16.9637 2.57783V2.44926L16.6783 2.48697V2.48326V2.48326Z" fill="#E23E48"/>
</g>
<defs>
<clipPath id="clip0_7_37">
<rect width="24" height="24" fill="white"/>
</clipPath>
</defs>
</svg>
