<svg width="24" height="24" viewBox="0 0 24 24" fill="none" xmlns="http://www.w3.org/2000/svg">
<path d="M22.2777 18.2168C21.9509 17.8943 19.3002 15.3692 17.347 16.2864L16.5639 15.5033C19.4155 12.4677 21.3335 8.67569 22.0888 4.5798L22.4879 2.38403C22.5095 2.26477 22.5019 2.14205 22.4657 2.02637C22.4295 1.91069 22.3659 1.80549 22.2802 1.71975C22.1949 1.63351 22.0897 1.56951 21.9739 1.53337C21.8581 1.49723 21.7352 1.49005 21.616 1.51245L19.4198 1.9116C15.324 2.6666 11.532 4.58443 8.49667 7.4361L7.71329 6.6525C8.62964 4.6995 6.10627 2.0487 5.78249 1.72268C5.71305 1.65245 5.63042 1.59662 5.53935 1.55841C5.44828 1.5202 5.35056 1.50035 5.25179 1.5C5.05457 1.51052 4.86684 1.58804 4.71967 1.71975L1.71967 4.71975C1.64977 4.78962 1.59436 4.87261 1.55664 4.96395C1.51891 5.0553 1.49961 5.1532 1.49985 5.25203C1.50009 5.35086 1.51985 5.44867 1.55802 5.53984C1.59618 5.631 1.65198 5.71373 1.72222 5.78325C1.99904 6.05715 3.95062 7.92338 5.72932 7.92338C6.04929 7.9233 6.36526 7.85214 6.65437 7.71503L7.43609 8.49675C4.58445 11.5323 2.66652 15.3243 1.91122 19.4202L1.51207 21.616C1.49244 21.7241 1.49679 21.8351 1.52481 21.9413C1.55283 22.0475 1.60384 22.1463 1.67423 22.2306C1.74462 22.3149 1.83267 22.3828 1.93216 22.4293C2.03165 22.4759 2.14015 22.5 2.24999 22.5C2.29497 22.5002 2.33985 22.496 2.38402 22.4876L4.58017 22.0884C8.67597 21.3334 12.4679 19.4156 15.5033 16.5639L16.2867 17.3475C15.3704 19.3008 17.8937 21.9515 18.2172 22.2776C18.3611 22.4152 18.551 22.4944 18.75 22.5C18.9489 22.5 19.1396 22.4209 19.2802 22.2803L22.2802 19.2803C22.3501 19.2104 22.4055 19.1274 22.4432 19.0361C22.481 18.9447 22.5003 18.8468 22.5 18.748C22.4998 18.6492 22.48 18.5514 22.4419 18.4602C22.4037 18.3691 22.3479 18.2864 22.2777 18.2168ZM19.6875 3.3867L20.818 3.18165L20.6129 4.31175C19.9129 8.10777 18.1402 11.6238 15.5044 14.4438L14.4607 13.4002C15.0443 12.4704 15.4002 11.416 15.4996 10.3228C15.5121 10.0794 15.4752 9.83609 15.3912 9.60738C15.3072 9.37867 15.1777 9.16934 15.0106 8.99198C14.0765 8.06018 12.229 8.60378 10.5931 9.53198L9.55649 8.49533C12.3761 5.85961 15.8918 4.0868 19.6875 3.3867V3.3867ZM11.6961 10.6355C12.3053 10.2877 12.9776 10.0644 13.6739 9.97853C13.7722 9.96803 13.8709 9.9948 13.9504 10.0535C13.9922 10.1369 14.0092 10.2304 13.9995 10.3231C13.9223 11.017 13.7017 11.6873 13.3518 12.2915L11.6961 10.6355ZM12.555 13.6157C12.2759 14.0214 11.9625 14.4025 11.6183 14.7547V14.7554C11.3029 15.0701 10.8754 15.2468 10.4298 15.2467C9.98423 15.2465 9.5569 15.0696 9.24164 14.7547C9.08574 14.5991 8.96206 14.4142 8.87767 14.2108C8.79328 14.0073 8.74984 13.7892 8.74984 13.5689C8.74984 13.3486 8.79328 13.1305 8.87767 12.927C8.96206 12.7236 9.08574 12.5387 9.24164 12.3831C9.59306 12.0368 9.97264 11.7202 10.3765 11.4368L12.555 13.6157ZM3.34274 5.21775L5.21774 3.34275C5.96407 4.26413 6.79499 5.6448 6.21974 6.21975C5.64449 6.7947 4.26412 5.9634 3.34274 5.21775ZM4.31249 20.6133L3.18202 20.8184L3.38707 19.6883C4.08705 15.8922 5.85983 12.3762 8.49562 9.5562L9.30749 10.3678C8.90971 10.6582 8.5335 10.977 8.18182 11.3218C7.58871 11.9187 7.25645 12.7264 7.25788 13.5679C7.25931 14.4094 7.59431 15.216 8.18944 15.8109C8.78458 16.4057 9.5913 16.7404 10.4328 16.7415C11.2743 16.7426 12.0818 16.41 12.6785 15.8167C13.0234 15.4655 13.3418 15.0893 13.631 14.691L14.4445 15.5045C11.6246 18.1404 8.10855 19.9133 4.31249 20.6133V20.6133ZM18.7822 20.6573C18.0359 19.7359 17.2054 18.3553 17.7803 17.7803C17.8493 17.715 17.9307 17.6644 18.0198 17.6314C18.1088 17.5984 18.2036 17.5838 18.2985 17.5884C19.1818 17.7553 19.9997 18.1692 20.6572 18.7823L18.7822 20.6573Z" fill="#E23E48"/>
<path d="M6.75 15.75H5.25V18C5.25 18.1989 5.32902 18.3897 5.46967 18.5303C5.61032 18.671 5.80109 18.75 6 18.75H8.25V17.25H6.75V15.75ZM17.25 8.25H18.75V6C18.75 5.80109 18.671 5.61032 18.5303 5.46967C18.3897 5.32902 18.1989 5.25 18 5.25H15.75V6.75H17.25V8.25Z" fill="#E23E48"/>
</svg>
