<svg width="24" height="24" viewBox="0 0 24 24" fill="none" xmlns="http://www.w3.org/2000/svg">
<path d="M3.91883 19.7029C3.81543 19.762 3.69705 19.7898 3.57813 19.7829C3.45921 19.7759 3.34487 19.7345 3.24906 19.6637C3.15326 19.5929 3.08011 19.4958 3.03855 19.3842C2.99699 19.2725 2.98881 19.1512 3.015 19.035C3.04435 18.8919 3.12422 18.7641 3.24 18.675L6.32753 17.175L5.67225 15.8254L2.5269 17.3569C2.12991 17.5959 1.82229 17.9586 1.65122 18.3892C1.48016 18.8198 1.45511 19.2947 1.57991 19.741C1.70472 20.1872 1.97248 20.5802 2.34212 20.8596C2.71177 21.139 3.16288 21.2895 3.62625 21.2878C3.97701 21.2892 4.322 21.1986 4.62675 21.0249L9.33548 18.6709L8.6646 17.329L3.91883 19.7029ZM22.4484 18.706C22.3808 18.4171 22.2541 18.1453 22.0763 17.9077C21.8985 17.6701 21.6735 17.4718 21.4154 17.3254L18.3278 15.8254L17.6723 17.1745L20.7023 18.643C20.7736 18.6858 20.8354 18.7426 20.8841 18.8099C20.9328 18.8773 20.9673 18.9538 20.9855 19.0349C21.0038 19.116 21.0054 19.1999 20.9902 19.2816C20.975 19.3633 20.9434 19.4411 20.8973 19.5103C20.8048 19.6432 20.6645 19.7354 20.5057 19.7675C20.3469 19.7996 20.1818 19.7693 20.0448 19.6828L15.3361 17.3287L14.6652 18.6706L19.337 21.0048C19.6929 21.208 20.1003 21.3033 20.5094 21.2792C20.9186 21.2551 21.3119 21.1126 21.6416 20.8691C21.9712 20.6255 22.223 20.2914 22.3662 19.9074C22.5095 19.5234 22.538 19.106 22.4484 18.706V18.706Z" fill="#E23E48"/>
<path d="M12.3975 1.61421C12.2632 1.53003 12.1056 1.49061 11.9474 1.50163C11.7893 1.51264 11.6387 1.57352 11.5173 1.67551C11.3959 1.7775 11.31 1.91535 11.2719 2.06925C11.2338 2.22314 11.2455 2.38515 11.3053 2.53199C12.2153 4.77246 12.1175 7.34841 11.0782 8.52396C10.8515 8.78758 10.5504 8.97654 10.2143 9.06606C9.87832 9.15558 9.52309 9.14149 9.19522 9.02564C7.8735 8.66999 8.15737 7.21949 8.2266 6.93599C8.2682 6.77369 8.25426 6.60214 8.187 6.44869C8.11974 6.29524 8.00304 6.16873 7.85551 6.08933C7.70798 6.00994 7.53811 5.98222 7.37299 6.01062C7.20787 6.03901 7.05701 6.12187 6.94448 6.24599C6.1791 6.99755 5.56929 7.89254 5.14986 8.87982C4.73043 9.86711 4.50961 10.9273 4.5 12C4.5 17.8315 8.61367 19.117 10.3825 19.3989L10.5939 18.0714L10.9999 17.6179C10.8426 17.4772 10.7168 17.3049 10.6307 17.1122C10.5446 16.9196 10.5 16.711 10.5 16.5C10.5 15.9807 10.8087 15.706 11.4507 15.1824C12.0313 14.7522 12.5311 14.2225 12.9269 13.618C13.3418 14.5081 13.5385 15.4843 13.5007 16.4656C13.4982 16.6815 13.4526 16.8946 13.3665 17.0926C13.2805 17.2905 13.1558 17.4693 12.9998 17.6185L13.4063 18.0727L13.6175 19.399C15.3863 19.117 19.5 17.8315 19.5 12C19.5 6.12081 12.6874 1.79519 12.3975 1.61421ZM14.7881 17.535C14.9092 17.2142 14.9804 16.8768 14.9993 16.5344C15.0982 14.7024 14.4938 12.9018 13.3096 11.5005C13.2164 11.3961 13.0959 11.3198 12.9616 11.2803C12.8274 11.2408 12.6847 11.2396 12.5498 11.277C12.415 11.3143 12.2932 11.3886 12.1984 11.4916C12.1036 11.5945 12.0394 11.7219 12.0132 11.8594C11.8147 12.7508 11.2716 13.5275 10.5025 14.02C9.79837 14.595 9 15.2453 9 16.5C9.00465 16.8521 9.07163 17.2007 9.19785 17.5294C7.52685 16.86 6 15.3384 6 12C5.98706 10.8756 6.29399 9.77064 6.885 8.81399C7.0434 9.22755 7.30158 9.59555 7.63655 9.88524C7.97152 10.1749 8.37291 10.3773 8.805 10.4744C9.40287 10.6642 10.0433 10.6748 10.647 10.5047C11.2508 10.3347 11.7916 9.99145 12.2025 9.51749C13.27 8.30999 13.656 6.28386 13.3125 4.16421C15.208 5.74874 18 8.65064 18 12C18 15.3477 16.4646 16.8683 14.7881 17.535Z" fill="#E23E48"/>
<path d="M12 17.25C11.4808 17.25 10.9733 17.404 10.5416 17.6924C10.11 17.9808 9.7735 18.3908 9.57482 18.8705C9.37614 19.3501 9.32415 19.8779 9.42544 20.3871C9.52673 20.8963 9.77673 21.364 10.1438 21.7312C10.511 22.0983 10.9787 22.3483 11.4879 22.4496C11.9971 22.5508 12.5249 22.4989 13.0045 22.3002C13.4842 22.1015 13.8942 21.7651 14.1826 21.3334C14.471 20.9017 14.625 20.3942 14.625 19.875C14.6242 19.1791 14.3473 18.5119 13.8552 18.0198C13.3631 17.5277 12.6959 17.2508 12 17.25ZM12 21C11.7775 21 11.56 20.934 11.375 20.8104C11.19 20.6868 11.0458 20.5111 10.9606 20.3055C10.8755 20.1 10.8532 19.8738 10.8966 19.6555C10.94 19.4373 11.0472 19.2368 11.2045 19.0795C11.3618 18.9222 11.5623 18.815 11.7805 18.7716C11.9988 18.7282 12.225 18.7505 12.4305 18.8356C12.6361 18.9208 12.8118 19.065 12.9354 19.25C13.059 19.435 13.125 19.6525 13.125 19.875C13.1247 20.1733 13.0061 20.4592 12.7951 20.6701C12.5842 20.8811 12.2983 20.9997 12 21Z" fill="#E23E48"/>
<path d="M10.5 4.5H9V6.75H10.5V4.5Z" fill="#E23E48"/>
<path d="M19.5 2.25H18V4.5H19.5V2.25Z" fill="#E23E48"/>
<path d="M5.25 3.75H3.75V6H5.25V3.75Z" fill="#E23E48"/>
<path d="M7.5 1.5H6V3.75H7.5V1.5Z" fill="#E23E48"/>
<path d="M21 6H19.5V8.25H21V6Z" fill="#E23E48"/>
</svg>
